<svg width="20" height="20" viewBox="0 0 20 20" fill="none" xmlns="http://www.w3.org/2000/svg">
<path fill-rule="evenodd" clip-rule="evenodd" d="M17.5 3V17H3V3H17.5ZM16 4.5H4.5V15.5H16V4.5ZM10.49 6.5L10.7259 6.50623C11.3379 6.53949 11.8143 6.70574 12.155 7.005C12.5383 7.34167 12.73 7.77333 12.73 8.3C12.73 8.74 12.6117 9.09167 12.375 9.355C12.1383 9.61833 11.85 9.79667 11.51 9.89C11.91 9.97 12.24 10.1683 12.5 10.485C12.76 10.8017 12.89 11.17 12.89 11.59C12.89 12.1433 12.69 12.6 12.29 12.96C11.9344 13.28 11.4472 13.4578 10.8283 13.4933L10.59 13.5H7.68V6.5H10.49ZM10.37 10.4H8.96V12.46H10.39C10.77 12.46 11.065 12.3717 11.275 12.195C11.485 12.0183 11.59 11.77 11.59 11.45C11.59 11.1233 11.48 10.8667 11.26 10.68C11.0714 10.52 10.8265 10.4286 10.5253 10.4057L10.37 10.4ZM10.28 7.53H8.96V9.44H10.3C10.66 9.44 10.9367 9.35667 11.13 9.19C11.3233 9.02333 11.42 8.78667 11.42 8.48C11.42 8.18667 11.325 7.955 11.135 7.785C10.9721 7.63929 10.7395 7.55602 10.437 7.5352L10.28 7.53Z" fill="currentColor"/>
</svg>
