<svg width="20" height="20" viewBox="0 0 20 20" fill="none" xmlns="http://www.w3.org/2000/svg">
<path fill-rule="evenodd" clip-rule="evenodd" d="M7.66154 3L7.661 3.646H12.399L12.4 3H13.6923L13.692 3.646L16.0615 3.64615V17H4V3.64615L6.369 3.646L6.36923 3H7.66154ZM14.769 7.523H5.292L5.29231 15.7077H14.7692L14.769 7.523ZM9.04367 9.03077V14.2H7.75136L7.75108 10.5008L6.68457 11.0798V9.87419L7.75136 9.03077H9.04367ZM13.0462 9.03077V14.2H11.7538L11.753 10.5L10.6871 11.0798V9.87419L11.7538 9.03077H13.0462ZM6.369 4.938H5.292V6.23H14.769V4.938H13.692L13.6923 5.58462H12.4L12.399 4.938H7.661L7.66154 5.58462H6.36923L6.369 4.938Z" fill="currentColor"/>
</svg>
