<svg width="20" height="20" viewBox="0 0 20 20" fill="none" xmlns="http://www.w3.org/2000/svg">
<path fill-rule="evenodd" clip-rule="evenodd" d="M5.47525 10.5567L11.9811 4.26436C13.5038 2.74163 15.6553 2.54805 17.0437 3.93646C18.3056 5.1983 18.062 6.88641 16.7332 8.50436C16.6746 8.57568 16.6135 8.64527 16.5524 8.71067L10.5151 14.9623L10.5174 14.9645C8.31842 17.2241 5.0237 17.6977 3.22932 15.9034C1.38048 14.0545 1.60741 11.3662 3.97553 8.81713L4.14833 8.6353L9.87604 3.19869L10.7591 4.12907L5.04991 9.54741C2.99049 11.6673 2.78835 13.6483 4.13637 14.9963C5.32469 16.1846 7.70258 15.884 9.43738 14.229L9.4959 14.1711L15.5459 7.90624C15.6152 7.83697 15.6806 7.76488 15.7419 7.69022C16.7005 6.523 16.8412 5.54803 16.1367 4.84351C15.323 4.02982 14.0494 4.10893 13.0093 5.05601L12.8805 5.17891L6.37134 11.4746C5.95722 11.8923 5.95833 12.5667 6.37467 12.983C6.7643 13.3726 7.37987 13.3986 7.79032 13.0705L7.87498 12.9947L13.3252 7.25846L14.2551 8.14202L8.79347 13.8901C7.87506 14.8085 6.38603 14.8085 5.46763 13.8901C4.58749 13.0099 4.55081 11.6057 5.35761 10.6819L5.46763 10.5642L5.92116 11.0177L5.47525 10.5567Z" fill="currentColor"/>
</svg>
