<svg width="20" height="20" viewBox="0 0 20 20" fill="none" xmlns="http://www.w3.org/2000/svg">
<path fill-rule="evenodd" clip-rule="evenodd" d="M5.6734 14.1586L5.68558 14.1609L5.62326 14.1619L5.63626 14.158L5.15018 14.1545L5.1507 14.1619L4.02548 14.1628L3.86747 14.1581C2.50716 14.0763 1.39535 12.9477 1.39535 11.6047C1.39535 10.571 2.01393 9.65123 2.94809 9.25146L3.53562 9.00002L3.33657 8.39274L3.29197 8.2276C3.26805 8.11578 3.25581 8.00072 3.25581 7.88372C3.25581 6.98465 3.98465 6.25581 4.88372 6.25581C5.08441 6.25581 5.27905 6.29182 5.46164 6.36118L5.92699 6.53795L6.24553 6.15542L6.40326 5.97507C7.31952 4.97735 8.61169 4.39535 10 4.39535C12.091 4.39535 13.9296 5.72155 14.6101 7.66284L14.7862 8.16508L15.4443 8.11914L15.5985 8.11607L15.7683 8.12088C17.3428 8.21 18.6047 9.52741 18.6047 11.1395C18.6047 12.7529 17.3374 14.0802 15.7329 14.1591L15.5643 14.163L11.8736 14.1628V15.5581H15.5814L15.7842 15.5534L15.9855 15.539C18.2524 15.3262 20 13.4304 20 11.1395L19.9955 10.9373C19.8928 8.65787 18.0631 6.82817 15.7837 6.72548L15.7377 6.72372L15.6522 6.54071C14.6194 4.40895 12.4438 3 10 3L9.74333 3.00518C8.12359 3.07066 6.61948 3.75385 5.51014 4.88917L5.48093 4.92093L5.3237 4.89234C5.17895 4.87119 5.03199 4.86047 4.88372 4.86047C3.21402 4.86047 1.86047 6.21402 1.86047 7.88372L1.86657 8.07713L1.88279 8.23628L1.70365 8.35298C0.656886 9.07763 0 10.2808 0 11.6047C0 13.7795 1.83294 15.5581 4.02548 15.5581H7.78344V14.1628H6.69861L5.6734 14.1586ZM12.4186 11.5116L9.81395 8.90698L7.2093 11.5116L9.06977 11.5107V16.7209H10.4651V11.5107L12.4186 11.5116Z" fill="currentColor"/>
</svg>
