<svg width="20" height="20" viewBox="0 0 20 20" fill="none" xmlns="http://www.w3.org/2000/svg">
<path fill-rule="evenodd" clip-rule="evenodd" d="M2.00022 7.47447C2.00818 8.36813 2.37569 9.07259 3.33359 10.1385L3.67507 10.508L4.06219 10.9088L5.20774 12.0598L5.51684 12.377L6.54184 13.4391L8.98982 15.9195L10.0659 17L13.0502 14.0122L14.8302 12.2493L16.0254 11.0842L16.0944 11.0152C16.6671 10.4378 17.0721 9.97267 17.3851 9.50863C17.8435 8.82908 18.0862 8.16582 18.0862 7.468L18.0826 7.26946C17.9399 3.40225 13.6318 1.74615 10.2231 4.3641L10.0747 4.48195L9.93129 4.35914C6.52563 1.51962 1.96393 3.4035 2.00022 7.47447ZM9.52114 5.96922L10.0297 6.51566L10.5621 5.99246C13.2247 3.37605 16.6333 4.54465 16.6333 7.468C16.6333 7.84476 16.4891 8.23881 16.1806 8.69616C15.9599 9.0234 15.6631 9.37332 15.248 9.80293L14.9964 10.0584L13.2013 11.8121L12.0252 12.9824L10.0669 14.9411L8.04378 12.8966L6.98642 11.8106L6.40795 11.2088L6.07082 10.8661L5.12017 9.91233L4.78915 9.57025L4.50002 9.25962L4.25081 8.97742C4.21249 8.93259 4.17575 8.88882 4.14055 8.84604L3.94748 8.6008C3.59693 8.1322 3.45601 7.78875 3.45309 7.46152C3.42655 4.48378 6.96135 3.21873 9.52114 5.96922Z" fill="currentColor"/>
</svg>
