<svg width="20" height="20" viewBox="0 0 20 20" fill="none" xmlns="http://www.w3.org/2000/svg">
<path fill-rule="evenodd" clip-rule="evenodd" d="M16.5648 6.95529L9.78239 3L3 6.95529L5.53357 8.43852L3.03721 9.89432L5.73244 11.4722L3.03721 13.044L9.79466 17L16.5521 13.044L13.8569 11.4722L16.5521 9.89432L14.0435 8.43135L16.5648 6.95529ZM12.2969 12.3855L9.79466 13.8504L7.29249 12.3855L6.1591 13.0466L9.79484 15.1747L13.4306 13.0466L12.2969 12.3855ZM6.1591 9.89691L7.09364 9.35183L9.78239 10.9259L12.4835 9.34463L13.4306 9.89691L9.79484 12.025L6.1591 9.89691ZM6.1213 6.95724L9.78224 4.82283L13.4442 6.95724L9.78224 9.1011L6.1213 6.95724Z" fill="currentColor"/>
</svg>
