<svg width="20" height="20" viewBox="0 0 20 20" fill="none" xmlns="http://www.w3.org/2000/svg">
<path fill-rule="evenodd" clip-rule="evenodd" d="M10 3C13.866 3 17 6.13401 17 10C17 13.866 13.866 17 10 17C6.13401 17 3 13.866 3 10C3 6.13401 6.13401 3 10 3ZM10 4.5C6.96243 4.5 4.5 6.96243 4.5 10C4.5 13.0376 6.96243 15.5 10 15.5C13.0376 15.5 15.5 13.0376 15.5 10C15.5 6.96243 13.0376 4.5 10 4.5ZM9.63036 12.08C9.86369 12.08 10.0537 12.1533 10.2004 12.3C10.347 12.4467 10.4204 12.6267 10.4204 12.84C10.4204 13.0467 10.347 13.2233 10.2004 13.37C10.0537 13.5167 9.86369 13.59 9.63036 13.59C9.39702 13.59 9.20536 13.5167 9.05536 13.37C8.90536 13.2233 8.83036 13.0467 8.83036 12.84C8.83036 12.6267 8.90536 12.4467 9.05536 12.3C9.20536 12.1533 9.39702 12.08 9.63036 12.08ZM10.2804 6.4C10.727 6.4 11.122 6.48333 11.4654 6.65C11.8087 6.81667 12.0787 7.055 12.2754 7.365C12.472 7.675 12.5704 8.05333 12.5704 8.5C12.5704 8.96 12.4687 9.34 12.2654 9.64C12.062 9.94 11.7854 10.1633 11.4354 10.31C11.1437 10.4322 10.8138 10.5058 10.4458 10.5308L10.2204 10.54L10.1904 11.34H9.06036L9.02036 9.69H9.48036L9.72973 9.68437C9.97348 9.67313 10.2004 9.645 10.4104 9.6C10.6904 9.54 10.9137 9.42333 11.0804 9.25C11.247 9.07667 11.3304 8.82333 11.3304 8.49C11.3304 8.17 11.2337 7.91833 11.0404 7.735C10.847 7.55167 10.5904 7.46 10.2704 7.46C9.93702 7.46 9.67702 7.55167 9.49036 7.735C9.3348 7.88778 9.24406 8.08569 9.21813 8.32875L9.21036 8.48H8.00036L8.0048 8.28361C8.02517 7.96232 8.11036 7.67111 8.26036 7.41C8.44036 7.09667 8.70202 6.85 9.04536 6.67C9.38869 6.49 9.80036 6.4 10.2804 6.4Z" fill="currentColor"/>
</svg>
