<svg width="20" height="20" viewBox="0 0 20 20" fill="none" xmlns="http://www.w3.org/2000/svg">
<path fill-rule="evenodd" clip-rule="evenodd" d="M7.09848 3V4.59091C4.68224 4.59091 2.71003 6.49205 2.59611 8.88009L2.59197 9.04545H8.95455V17H1L1.00106 9.04545L1.00462 8.85888C1.12746 5.67944 3.68437 3.12434 6.86456 3.0044L7.09848 3ZM17.7045 3V4.59091C15.2883 4.59091 13.3161 6.49205 13.2022 8.88009L13.198 9.04545H19.5606V17H11.6061L11.6071 9.04545L11.6107 8.85888C11.7335 5.67944 14.2904 3.12434 17.4706 3.0044L17.7045 3ZM7.36364 10.6364H2.59091V15.4091H7.36364V10.6364ZM17.9697 10.6364H13.197V15.4091H17.9697V10.6364Z" fill="currentColor"/>
</svg>
