<svg width="20" height="20" viewBox="0 0 20 20" fill="none" xmlns="http://www.w3.org/2000/svg">
<path fill-rule="evenodd" clip-rule="evenodd" d="M8.73314 3C11.8995 3 14.4663 5.56682 14.4663 8.73314C14.4663 10.1189 13.9747 11.3898 13.1563 12.3809L16.7611 15.9865L15.7476 17L12.112 13.3653C11.1645 14.0576 9.99652 14.4663 8.73314 14.4663C5.56682 14.4663 3 11.8995 3 8.73314C3 5.56682 5.56682 3 8.73314 3ZM8.73314 4.43329C6.3584 4.43329 4.43329 6.3584 4.43329 8.73314C4.43329 11.1079 6.3584 13.033 8.73314 13.033C9.57439 13.033 10.3762 12.7922 11.0636 12.3475L11.2664 12.208L11.7058 11.8873L12.0511 11.4684C12.6342 10.7621 12.9774 9.89303 13.0268 8.96604L13.033 8.73314C13.033 6.3584 11.1079 4.43329 8.73314 4.43329Z" fill="currentColor"/>
</svg>
