<svg width="20" height="20" viewBox="0 0 20 20" fill="none" xmlns="http://www.w3.org/2000/svg">
<path fill-rule="evenodd" clip-rule="evenodd" d="M18 6C18 4.34315 16.6569 3 15 3C13.3431 3 12 4.34315 12 6C12 6.49066 12.1178 6.9538 12.3266 7.3627L10.4893 9.2H8.89215C8.54206 7.93153 7.37981 7 6 7C4.34315 7 3 8.34315 3 10C3 11.6569 4.34315 13 6 13C7.41583 13 8.60258 12.0192 8.9179 10.7H10.3893L12.3266 12.6373C12.1178 13.0462 12 13.5093 12 14C12 15.6569 13.3431 17 15 17C16.6569 17 18 15.6569 18 14C18 12.3431 16.6569 11 15 11C14.3788 11 13.8016 11.1888 13.3229 11.5122L11.8107 10L13.3229 8.48778C13.8016 8.81117 14.3788 9 15 9C16.6569 9 18 7.65685 18 6ZM13.5 6C13.5 5.17157 14.1716 4.5 15 4.5C15.8284 4.5 16.5 5.17157 16.5 6C16.5 6.82843 15.8284 7.5 15 7.5C14.1716 7.5 13.5 6.82843 13.5 6ZM6 8.5C5.17157 8.5 4.5 9.17157 4.5 10C4.5 10.8284 5.17157 11.5 6 11.5C6.82843 11.5 7.5 10.8284 7.5 10C7.5 9.17157 6.82843 8.5 6 8.5ZM15 12.5C14.1716 12.5 13.5 13.1716 13.5 14C13.5 14.8284 14.1716 15.5 15 15.5C15.8284 15.5 16.5 14.8284 16.5 14C16.5 13.1716 15.8284 12.5 15 12.5Z" fill="currentColor"/>
</svg>
