<svg width="20" height="20" viewBox="0 0 20 20" fill="none" xmlns="http://www.w3.org/2000/svg">
<path fill-rule="evenodd" clip-rule="evenodd" d="M3.87679 3L6.88998 6.01257L6.98905 5.95734C8.05543 5.37568 9.18733 5.05025 10.3356 5.05025C12.0551 5.05025 13.6909 5.91292 15.2112 7.32642C15.7275 7.8064 16.1942 8.31847 16.6052 8.83088L16.8296 9.11781L17.0047 9.35418L17.1289 9.53291L17.3992 9.93919L17.1528 10.3604L16.9558 10.6758L16.6832 11.0699C16.5594 11.2411 16.4181 11.427 16.2602 11.623C15.6808 12.342 15.045 12.9778 14.355 13.4784L17.1399 16.2632L16.4031 17L3.13995 3.73684L3.87679 3ZM6.6067 8.36638L6.39335 8.58206L6.14082 8.85468L5.69503 9.36233C5.52715 9.55813 5.35459 9.76374 5.18209 9.97267L4.97188 10.2298L5.0686 10.3453C5.37372 10.7008 5.71556 11.0567 6.08959 11.3968L6.37607 11.6486C7.44736 12.5585 8.59125 13.1819 9.76394 13.3998C10.1112 13.4644 10.6032 13.4487 10.9735 13.4092L11.2242 13.376L11.3014 13.3623L11.4206 13.3344C11.4361 13.3298 11.4494 13.3253 11.46 13.3209L11.4877 13.3049L12.5987 14.4044C11.9774 14.8287 10.6513 15.0567 9.47834 14.9366C7.97693 14.7829 6.62657 13.9122 5.36418 12.8399C4.81008 12.3693 4.31449 11.8666 3.88249 11.3633L3.6464 11.0806L3.46276 10.8472L3.39104 10.7512L3 10.1936L3.71119 9.30167C3.88775 9.08452 4.06692 8.86731 4.24428 8.65621L4.67481 8.15229L5.06357 7.71603L5.40153 7.35986L5.52172 7.24119L6.6067 8.36638ZM10.3356 6.61333C9.5724 6.61333 8.79971 6.80895 8.04704 7.17083L9.62726 8.75056C10.2242 8.40911 10.9983 8.49323 11.508 9.00291C12.0174 9.51229 12.1017 10.2858 11.7609 10.8826L13.2309 12.3535L13.3294 12.2895C13.9345 11.8698 14.5133 11.2998 15.0431 10.6422C15.1864 10.4644 15.319 10.2889 15.4401 10.1191L15.5289 9.99009L15.3858 9.80883C15.0197 9.35234 14.6033 8.8955 14.1469 8.47117C12.8882 7.30092 11.5844 6.61333 10.3356 6.61333Z" fill="currentColor"/>
</svg>
