<svg width="20" height="20" viewBox="0 0 20 20" fill="none" xmlns="http://www.w3.org/2000/svg">
<path fill-rule="evenodd" clip-rule="evenodd" d="M10.5 3C14.6421 3 18 5.44997 18 8.47217C18 11.4287 14.7865 13.8375 10.769 13.9409L10.4041 13.9433L9.95206 13.9251L9.53781 13.8997L5.24043 17L5.84704 12.7642L5.71707 12.6892L5.56836 12.5961L5.37608 12.4664L5.1494 12.3005C4.3065 11.6569 3 10.3556 3 8.47217C3 5.44997 6.35786 3 10.5 3ZM10.5 4.5C7.10257 4.5 4.5 6.3989 4.5 8.47217C4.5 9.41151 5.03034 10.2613 5.85433 10.9459L6.0353 11.09L6.21499 11.2229L6.36461 11.3249L6.46665 11.39L7.47577 11.9721L7.226 13.718L9.09467 12.3698L10.0125 12.4263L10.5 12.4443C13.8974 12.4443 16.5 10.5454 16.5 8.47217C16.5 6.3989 13.8974 4.5 10.5 4.5Z" fill="currentColor"/>
</svg>
