<svg width="20" height="20" viewBox="0 0 20 20" fill="none" xmlns="http://www.w3.org/2000/svg">
<path fill-rule="evenodd" clip-rule="evenodd" d="M9.85811 3C12.209 3 14.1149 4.90581 14.1149 7.25676C14.1149 8.63808 13.4569 9.86573 12.4373 10.6434C14.8806 11.6358 16.6225 13.996 16.7126 16.7736L16.7162 17H15.2973C15.2973 13.996 12.8621 11.5608 9.85811 11.5608C6.92399 11.5608 4.53249 13.8841 4.42285 16.7914L4.41892 17H3C3 14.1247 4.76947 11.6626 7.27888 10.6434C6.25929 9.86573 5.60135 8.63808 5.60135 7.25676C5.60135 4.90581 7.50717 3 9.85811 3ZM9.85811 4.41892C8.29081 4.41892 7.02027 5.68946 7.02027 7.25676C7.02027 8.82405 8.29081 10.0946 9.85811 10.0946C11.4254 10.0946 12.6959 8.82405 12.6959 7.25676C12.6959 5.68946 11.4254 4.41892 9.85811 4.41892Z" fill="currentColor"/>
</svg>
