<svg width="40" height="40" viewBox="0 0 40 40" fill="none" xmlns="http://www.w3.org/2000/svg">
<path fill-rule="evenodd" clip-rule="evenodd" d="M32.8929 8V33H7V8H32.8929ZM30.2143 10.6786H9.67857V30.3214H30.2143V10.6786ZM20.375 14.25L20.7962 14.2611C21.8891 14.3205 22.7397 14.6174 23.3482 15.1518C24.0327 15.753 24.375 16.5238 24.375 17.4643C24.375 18.25 24.1637 18.878 23.7411 19.3482C23.3185 19.8185 22.8036 20.1369 22.1964 20.3036C22.9107 20.4464 23.5 20.8006 23.9643 21.3661C24.4286 21.9315 24.6607 22.5893 24.6607 23.3393C24.6607 24.3274 24.3036 25.1429 23.5893 25.7857C22.9544 26.3571 22.0843 26.6746 20.9791 26.7381L20.5536 26.75H15.3571V14.25H20.375ZM20.1607 21.2143H17.6429V24.8929H20.1964C20.875 24.8929 21.4018 24.7351 21.7768 24.4196C22.1518 24.1042 22.3393 23.6607 22.3393 23.0893C22.3393 22.506 22.1429 22.0476 21.75 21.7143C21.4133 21.4286 20.9759 21.2653 20.438 21.2245L20.1607 21.2143ZM20 16.0893H17.6429V19.5H20.0357C20.6786 19.5 21.1726 19.3512 21.5179 19.0536C21.8631 18.756 22.0357 18.3333 22.0357 17.7857C22.0357 17.2619 21.8661 16.8482 21.5268 16.5446C21.236 16.2844 20.8205 16.1358 20.2804 16.0986L20 16.0893Z" fill="currentColor"/>
</svg>
