<svg width="40" height="40" viewBox="0 0 40 40" fill="none" xmlns="http://www.w3.org/2000/svg">
<path fill-rule="evenodd" clip-rule="evenodd" d="M15.5385 8L15.5375 9.15357H23.9982L24 8H26.3077L26.3071 9.15357L30.5385 9.15385V33H9V9.15385L13.2304 9.15357L13.2308 8H15.5385ZM28.2304 16.0768H11.3071L11.3077 30.6923H28.2308L28.2304 16.0768ZM18.0065 18.7692V28H15.6989L15.6984 21.3942L13.7939 22.4282V20.2753L15.6989 18.7692H18.0065ZM25.1538 18.7692V28H22.8462L22.8446 21.3929L20.9412 22.4282V20.2753L22.8462 18.7692H25.1538ZM13.2304 11.4607H11.3071V13.7679H28.2304V11.4607H26.3071L26.3077 12.6154H24L23.9982 11.4607H15.5375L15.5385 12.6154H13.2308L13.2304 11.4607Z" fill="currentColor"/>
</svg>
