<svg width="40" height="40" viewBox="0 0 40 40" fill="none" xmlns="http://www.w3.org/2000/svg">
<path fill-rule="evenodd" clip-rule="evenodd" d="M12.2058 21.4941L23.8234 10.2578C26.5426 7.53863 30.3845 7.19295 32.8638 9.67225C35.1171 11.9255 34.6821 14.94 32.3092 17.8292C32.2046 17.9566 32.0956 18.0808 31.9863 18.1976L21.2055 29.3613L21.2096 29.3653C17.2829 33.4001 11.3995 34.246 8.19522 31.0417C4.89372 27.7402 5.29894 22.9397 9.52774 18.3877L9.8363 18.063L20.0644 8.3548L21.6413 10.0162L11.4463 19.6918C7.76873 23.4773 7.40777 27.0148 9.81495 29.422C11.9369 31.544 16.1832 31.0071 19.281 28.0518L19.3855 27.9483L30.1892 16.7611C30.3129 16.6374 30.4296 16.5087 30.5391 16.3754C32.2509 14.2911 32.5021 12.55 31.2441 11.292C29.791 9.83896 27.5168 9.98023 25.6594 11.6714L25.4295 11.8909L13.8059 23.1332C13.0665 23.8792 13.0685 25.0833 13.8119 25.8268C14.5077 26.5226 15.6069 26.5689 16.3399 25.983L16.491 25.8478L26.2236 15.6044L27.8842 17.1822L18.1312 27.4465C16.4912 29.0865 13.8322 29.0865 12.1922 27.4465C10.6205 25.8748 10.555 23.3673 11.9957 21.7177L12.1922 21.5075L13.0021 22.3174L12.2058 21.4941Z" fill="currentColor"/>
</svg>
