<svg width="40" height="40" viewBox="0 0 40 40" fill="none" xmlns="http://www.w3.org/2000/svg">
<path fill-rule="evenodd" clip-rule="evenodd" d="M12.3371 28.3314L12.3593 28.3356L12.2458 28.3373L12.2695 28.3302L11.3838 28.3239L11.3847 28.3373L9.33456 28.339L9.04666 28.3303C6.56812 28.1814 4.54237 26.1251 4.54237 23.678C4.54237 21.7945 5.66945 20.1188 7.37152 19.3904L8.44201 18.9322L8.07934 17.8258L7.99809 17.5249C7.95449 17.3211 7.9322 17.1115 7.9322 16.8983C7.9322 15.2602 9.26017 13.9322 10.8983 13.9322C11.264 13.9322 11.6186 13.9978 11.9513 14.1242L12.7992 14.4463L13.3796 13.7493L13.667 13.4207C15.3364 11.6028 17.6908 10.5424 20.2203 10.5424C24.0301 10.5424 27.3802 12.9588 28.6202 16.4959L28.941 17.411L30.14 17.3272L30.421 17.3217L30.7305 17.3304C33.5992 17.4928 35.8983 19.8932 35.8983 22.8305C35.8983 25.7702 33.5893 28.1885 30.6658 28.3322L30.3587 28.3394L23.6341 28.339V30.8814H30.3898L30.7594 30.8727L31.1262 30.8465C35.2565 30.4588 38.4407 27.0046 38.4407 22.8305L38.4324 22.462C38.2453 18.3088 34.9115 14.9751 30.7584 14.7879L30.6746 14.7847L30.5189 14.4513C28.637 10.5672 24.6731 8 20.2203 8L19.7527 8.00944C16.8015 8.12875 14.0609 9.37355 12.0397 11.4421L11.9864 11.5L11.7 11.4479C11.4362 11.4094 11.1685 11.3898 10.8983 11.3898C7.85606 11.3898 5.38983 13.8561 5.38983 16.8983L5.40096 17.2507L5.43051 17.5407L5.10411 17.7533C3.19687 19.0737 2 21.2658 2 23.678C2 27.6407 5.33967 30.8814 9.33456 30.8814H16.1817V28.339H14.2051L12.3371 28.3314ZM24.6271 23.5085L19.8814 18.7627L15.1356 23.5085L18.5254 23.5068V33H21.0678V23.5068L24.6271 23.5085Z" fill="currentColor"/>
</svg>
