<svg width="40" height="40" viewBox="0 0 40 40" fill="none" xmlns="http://www.w3.org/2000/svg">
<path fill-rule="evenodd" clip-rule="evenodd" d="M6.00038 15.9901C6.01461 17.586 6.67088 18.8439 8.38141 20.7474L8.9912 21.4071L9.68248 22.1228L11.7281 24.1782L12.2801 24.7446L14.1104 26.6413L18.4818 31.0706L20.4034 33L25.7325 27.6646L28.9111 24.5165L31.0454 22.436L31.1686 22.3128C32.1912 21.2817 32.9145 20.4512 33.4735 19.6226C34.292 18.4091 34.7254 17.2247 34.7254 15.9786L34.7189 15.624C34.4642 8.7183 26.7711 5.76097 20.6841 10.4359L20.4191 10.6463L20.163 10.427C14.0815 5.35646 5.93559 8.72053 6.00038 15.9901ZM19.4306 13.3022L20.3387 14.278L21.2895 13.3437C26.044 8.67152 32.1309 10.7583 32.1309 15.9786C32.1309 16.6514 31.8734 17.355 31.3225 18.1717C30.9283 18.7561 30.3985 19.3809 29.6572 20.1481L29.2079 20.6043L26.0024 23.7359L23.9022 25.8257L20.4053 29.3234L16.7925 25.6724L14.9043 23.7332L13.8713 22.6586L13.2693 22.0466L11.5717 20.3434L10.9806 19.7326L10.4643 19.1779L10.0193 18.674C9.95088 18.5939 9.88527 18.5157 9.82241 18.4394L9.47764 18.0014C8.85166 17.1646 8.60001 16.5513 8.5948 15.967C8.54741 10.6496 14.8596 8.39059 19.4306 13.3022Z" fill="currentColor"/>
</svg>
