<svg width="40" height="40" viewBox="0 0 40 40" fill="none" xmlns="http://www.w3.org/2000/svg">
<path fill-rule="evenodd" clip-rule="evenodd" d="M32.2228 15.063L20.1114 8L8 15.063L12.5242 17.7116L8.06645 20.3113L12.8794 23.1289L8.06645 25.9357L20.1333 33L32.2002 25.9357L27.3873 23.1289L32.2002 20.3113L27.7205 17.6988L32.2228 15.063ZM24.6016 24.7598L20.1333 27.3756L15.6652 24.7598L13.6412 25.9403L20.1336 29.7405L26.6261 25.9403L24.6016 24.7598ZM13.6412 20.3159L15.3101 19.3426L20.1114 22.1534L24.9347 19.3297L26.6261 20.3159L20.1336 24.1161L13.6412 20.3159ZM13.5738 15.0665L20.1112 11.255L26.6504 15.0665L20.1112 18.8948L13.5738 15.0665Z" fill="currentColor"/>
</svg>
