<svg width="40" height="40" viewBox="0 0 40 40" fill="none" xmlns="http://www.w3.org/2000/svg">
<path fill-rule="evenodd" clip-rule="evenodd" d="M19.9286 8C24.8597 8 28.8571 11.401 28.8571 16.9286C28.8571 18.6826 27.958 20.9419 26.7247 23.209L26.4556 23.6948L25.9593 24.5492L25.7029 24.9736L25.1774 25.8129L24.6408 26.6347L24.1 27.4329L23.2957 28.573L22.774 29.2862L22.2718 29.955L21.5699 30.8617L20.9501 31.6347L20.4353 32.254L19.9518 32.8055L19.8123 32.9504L19.75 33L19.7294 32.9875L19.6309 32.89L19.3525 32.5733L18.9367 32.07L18.2068 31.1429L17.324 29.9667L16.5929 28.9495L16.0848 28.2182L15.5678 27.4513L15.0485 26.6546L14.5332 25.8341L14.0286 24.9957L13.5411 24.1453C12.1109 21.5821 11 18.9369 11 16.9286C11 11.3498 14.9975 8 19.9286 8ZM19.9286 10.6786C16.2114 10.6786 13.6786 13.0845 13.6786 16.9286C13.6786 18.1058 14.3658 20.0353 15.6089 22.3461L15.8649 22.8132L16.3235 23.6144L16.8016 24.4096L17.2923 25.1918L17.7889 25.9541L18.2846 26.69L18.7678 27.3862L19.4662 28.3587L19.7893 28.7875L20.1299 28.3465L20.6121 27.7048L21.107 27.0289L21.8825 25.9305L22.398 25.1703L22.9071 24.3915L23.4104 23.5881L23.643 23.2041L24.1226 22.3787C25.4547 20.0172 26.1786 18.0725 26.1786 16.9286C26.1786 13.1154 23.6239 10.6786 19.9286 10.6786ZM19.9286 20.5C21.901 20.5 23.5 18.901 23.5 16.9286C23.5 14.9561 21.901 13.3571 19.9286 13.3571C17.9561 13.3571 16.3571 14.9561 16.3571 16.9286C16.3571 18.901 17.9561 20.5 19.9286 20.5Z" fill="currentColor"/>
</svg>
