<svg width="40" height="40" viewBox="0 0 40 40" fill="none" xmlns="http://www.w3.org/2000/svg">
<path fill-rule="evenodd" clip-rule="evenodd" d="M20.5 8C27.4036 8 33 13.5964 33 20.5C33 27.4036 27.4036 33 20.5 33C13.5964 33 8 27.4036 8 20.5C8 13.5964 13.5964 8 20.5 8ZM20.5 10.6786C15.0758 10.6786 10.6786 15.0758 10.6786 20.5C10.6786 25.9242 15.0758 30.3214 20.5 30.3214C25.9242 30.3214 30.3214 25.9242 30.3214 20.5C30.3214 15.0758 25.9242 10.6786 20.5 10.6786ZM19.8399 24.2143C20.2566 24.2143 20.5959 24.3452 20.8578 24.6071C21.1197 24.869 21.2506 25.1905 21.2506 25.5714C21.2506 25.9405 21.1197 26.256 20.8578 26.5179C20.5959 26.7798 20.2566 26.9107 19.8399 26.9107C19.4233 26.9107 19.081 26.7798 18.8131 26.5179C18.5453 26.256 18.4114 25.9405 18.4114 25.5714C18.4114 25.1905 18.5453 24.869 18.8131 24.6071C19.081 24.3452 19.4233 24.2143 19.8399 24.2143ZM21.0006 14.0714C21.7983 14.0714 22.5036 14.2202 23.1167 14.5179C23.7298 14.8155 24.2119 15.2411 24.5631 15.7946C24.9143 16.3482 25.0899 17.0238 25.0899 17.8214C25.0899 18.6429 24.9084 19.3214 24.5453 19.8571C24.1822 20.3929 23.6881 20.7917 23.0631 21.0536C22.5423 21.2718 21.9533 21.4033 21.296 21.4479L20.8935 21.4643L20.8399 22.8929H18.8221L18.7506 19.9464H19.5721L20.0174 19.9364C20.4526 19.9163 20.8578 19.8661 21.2328 19.7857C21.7328 19.6786 22.1316 19.4702 22.4292 19.1607C22.7268 18.8512 22.8756 18.3988 22.8756 17.8036C22.8756 17.2321 22.703 16.7827 22.3578 16.4554C22.0125 16.128 21.5542 15.9643 20.9828 15.9643C20.3875 15.9643 19.9233 16.128 19.5899 16.4554C19.3121 16.7282 19.1501 17.0816 19.1038 17.5156L19.0899 17.7857H16.9292L16.9371 17.435C16.9735 16.8613 17.1256 16.3413 17.3935 15.875C17.7149 15.3155 18.1822 14.875 18.7953 14.5536C19.4084 14.2321 20.1435 14.0714 21.0006 14.0714Z" fill="currentColor"/>
</svg>
