<svg width="40" height="40" viewBox="0 0 40 40" fill="none" xmlns="http://www.w3.org/2000/svg">
<path fill-rule="evenodd" clip-rule="evenodd" d="M13.8902 8V10.8409C9.57543 10.8409 6.05362 14.2358 5.85019 18.5002L5.8428 18.7955H17.2045V33H3L3.00189 18.7955L3.00825 18.4623C3.2276 12.7847 7.79352 8.22204 13.4724 8.00786L13.8902 8ZM32.8295 8V10.8409C28.5148 10.8409 24.993 14.2358 24.7896 18.5002L24.7822 18.7955H36.1439V33H21.9394L21.9413 18.7955L21.9476 18.4623C22.167 12.7847 26.7329 8.22204 32.4118 8.00786L32.8295 8ZM14.3636 21.6364H5.84091V30.1591H14.3636V21.6364ZM33.303 21.6364H24.7803V30.1591H33.303V21.6364Z" fill="currentColor"/>
</svg>
