<svg width="40" height="40" viewBox="0 0 40 40" fill="none" xmlns="http://www.w3.org/2000/svg">
<path fill-rule="evenodd" clip-rule="evenodd" d="M18.2378 8C23.8919 8 28.4755 12.5836 28.4755 18.2378C28.4755 20.7123 27.5976 22.9817 26.1363 24.7516L32.5734 31.1902L30.7636 33L24.2714 26.5095C22.5794 27.7458 20.4938 28.4755 18.2378 28.4755C12.5836 28.4755 8 23.8919 8 18.2378C8 12.5836 12.5836 8 18.2378 8ZM18.2378 10.5594C13.9971 10.5594 10.5594 13.9971 10.5594 18.2378C10.5594 22.4784 13.9971 25.9161 18.2378 25.9161C19.74 25.9161 21.1717 25.486 22.3994 24.692L22.7614 24.4429L23.546 23.8702L24.1626 23.1221C25.2039 21.861 25.8169 20.309 25.905 18.6536L25.9161 18.2378C25.9161 13.9971 22.4784 10.5594 18.2378 10.5594Z" fill="currentColor"/>
</svg>
