<svg width="40" height="40" viewBox="0 0 40 40" fill="none" xmlns="http://www.w3.org/2000/svg">
<path fill-rule="evenodd" clip-rule="evenodd" d="M33.7857 13.3571C33.7857 10.3985 31.3872 8 28.4286 8C25.4699 8 23.0714 10.3985 23.0714 13.3571C23.0714 14.2333 23.2818 15.0604 23.6547 15.7905L20.3738 19.0714H17.5217C16.8965 16.8063 14.8211 15.1429 12.3571 15.1429C9.39847 15.1429 7 17.5413 7 20.5C7 23.4587 9.39847 25.8571 12.3571 25.8571C14.8854 25.8571 17.0046 24.1057 17.5677 21.75H20.1952L23.6547 25.2095C23.2818 25.9396 23.0714 26.7667 23.0714 27.6429C23.0714 30.6015 25.4699 33 28.4286 33C31.3872 33 33.7857 30.6015 33.7857 27.6429C33.7857 24.6842 31.3872 22.2857 28.4286 22.2857C27.3192 22.2857 26.2886 22.6229 25.4337 23.2004L22.7333 20.5L25.4337 17.7996C26.2886 18.3771 27.3192 18.7143 28.4286 18.7143C31.3872 18.7143 33.7857 16.3158 33.7857 13.3571ZM25.75 13.3571C25.75 11.8778 26.9492 10.6786 28.4286 10.6786C29.9079 10.6786 31.1071 11.8778 31.1071 13.3571C31.1071 14.8365 29.9079 16.0357 28.4286 16.0357C26.9492 16.0357 25.75 14.8365 25.75 13.3571ZM12.3571 17.8214C10.8778 17.8214 9.67857 19.0207 9.67857 20.5C9.67857 21.9793 10.8778 23.1786 12.3571 23.1786C13.8365 23.1786 15.0357 21.9793 15.0357 20.5C15.0357 19.0207 13.8365 17.8214 12.3571 17.8214ZM28.4286 24.9643C26.9492 24.9643 25.75 26.1635 25.75 27.6429C25.75 29.1222 26.9492 30.3214 28.4286 30.3214C29.9079 30.3214 31.1071 29.1222 31.1071 27.6429C31.1071 26.1635 29.9079 24.9643 28.4286 24.9643Z" fill="currentColor"/>
</svg>
