<svg width="40" height="40" viewBox="0 0 40 40" fill="none" xmlns="http://www.w3.org/2000/svg">
<path fill-rule="evenodd" clip-rule="evenodd" d="M8.5657 8L13.9464 13.3796L14.1233 13.281C16.0276 12.2423 18.0488 11.6612 20.0992 11.6612C23.1699 11.6612 26.0909 13.2016 28.8058 15.7258C29.7277 16.5829 30.5611 17.4973 31.295 18.4123L31.6957 18.9247L32.0085 19.3468L32.2302 19.6659L32.7129 20.3914L32.2729 21.1436L31.9211 21.7068L31.4342 22.4106C31.2132 22.7162 30.9609 23.0483 30.679 23.3982C29.6443 24.6822 28.5089 25.8174 27.2768 26.7114L32.2499 31.6842L30.9341 33L7.24991 9.31579L8.5657 8ZM13.4405 17.5828L13.0595 17.968L12.6086 18.4548L11.8125 19.3613C11.5128 19.7109 11.2046 20.0781 10.8966 20.4512L10.5212 20.9103L10.6939 21.1166C11.2388 21.7514 11.8492 22.387 12.5171 22.9943L13.0287 23.4439C14.9417 25.0688 16.9844 26.182 19.0785 26.5711C19.6986 26.6864 20.5772 26.6584 21.2384 26.5878L21.6861 26.5285L21.8238 26.504L22.0368 26.4543C22.0645 26.4461 22.0881 26.438 22.1072 26.4301L22.1566 26.4016L24.1405 28.365C23.0311 29.1227 20.6631 29.5298 18.5685 29.3153C15.8874 29.0409 13.476 27.486 11.2218 25.5713C10.2323 24.7309 9.3473 23.8333 8.57587 22.9344L8.15428 22.4296L7.82636 22.0128L7.69829 21.8414L7 20.8457L8.26999 19.253C8.58526 18.8652 8.90521 18.4773 9.22193 18.1004L9.99073 17.2005L10.6849 16.4215L11.2884 15.7855L11.5031 15.5735L13.4405 17.5828ZM20.0992 14.4524C18.7364 14.4524 17.3566 14.8017 16.0126 15.4479L18.8344 18.2689C19.9004 17.6591 21.2827 17.8093 22.1928 18.7195C23.1024 19.6291 23.253 21.0103 22.6445 22.076L25.2694 24.7026L25.4454 24.5884C26.5259 23.8389 27.5594 22.821 28.5055 21.6469C28.7614 21.3293 28.9982 21.0158 29.2144 20.7127L29.373 20.4823L29.1175 20.1586C28.4638 19.3435 27.7202 18.5277 26.9052 17.7699C24.6576 15.6802 22.3294 14.4524 20.0992 14.4524Z" fill="currentColor"/>
</svg>
