<svg width="40" height="40" viewBox="0 0 40 40" fill="none" xmlns="http://www.w3.org/2000/svg">
<path fill-rule="evenodd" clip-rule="evenodd" d="M20.3929 8C27.7895 8 33.7857 12.375 33.7857 17.7717C33.7857 23.0512 28.0474 27.3528 20.8732 27.5373L20.2216 27.5416L19.4144 27.509L18.6747 27.4638L11.0008 33L12.084 25.4361L11.8519 25.3022L11.5864 25.1359L11.243 24.9042L10.8382 24.608C9.33303 23.4588 7 21.1351 7 17.7717C7 12.375 12.9962 8 20.3929 8ZM20.3929 10.6786C14.326 10.6786 9.67857 14.0695 9.67857 17.7717C9.67857 19.4491 10.6256 20.9666 12.097 22.1891L12.4202 22.4465L12.741 22.6837L13.0082 22.8658L13.1905 22.9821L14.9925 24.0217L14.5464 27.1393L17.8833 24.7318L19.5224 24.8326L20.3929 24.8649C26.4597 24.8649 31.1071 21.474 31.1071 17.7717C31.1071 14.0695 26.4597 10.6786 20.3929 10.6786Z" fill="currentColor"/>
</svg>
