<svg width="40" height="40" viewBox="0 0 40 40" fill="none" xmlns="http://www.w3.org/2000/svg">
<path fill-rule="evenodd" clip-rule="evenodd" d="M20.2466 8C24.4447 8 27.848 11.4032 27.848 15.6014C27.848 18.068 26.6731 20.2602 24.8524 21.649C29.2154 23.4211 32.3258 27.6356 32.4867 32.5958L32.4932 33H29.9595C29.9595 27.6357 25.6109 23.2872 20.2466 23.2872C15.0071 23.2872 10.7366 27.4358 10.5408 32.6274L10.5338 33H8C8 27.8655 11.1598 23.469 15.6409 21.649C13.8202 20.2602 12.6453 18.068 12.6453 15.6014C12.6453 11.4032 16.0485 8 20.2466 8ZM20.2466 10.5338C17.4479 10.5338 15.1791 12.8026 15.1791 15.6014C15.1791 18.4001 17.4479 20.6689 20.2466 20.6689C23.0454 20.6689 25.3142 18.4001 25.3142 15.6014C25.3142 12.8026 23.0454 10.5338 20.2466 10.5338Z" fill="currentColor"/>
</svg>
