<svg width="25" height="20" viewBox="0 0 25 20" fill="none" xmlns="http://www.w3.org/2000/svg">
<path fill-rule="evenodd" clip-rule="evenodd" d="M1 3V17H8.15402C8.8169 17 13.382 16.8729 13.382 12.9324C13.382 10.47 11.5903 9.63345 10.6804 9.38514C11.3496 9.08657 12.6816 8.37711 12.6816 6.47635C12.6816 5.41807 12.5221 3 7.95391 3H1ZM17.3092 4.30068V5.5777H22.8373V4.30068H17.3092ZM4.25183 5.38851H7.30354C7.59121 5.38851 9.5298 5.24367 9.5298 6.99662C9.5298 8.49535 8.12901 8.65203 7.55368 8.65203H4.25183V5.38851ZM20.2108 6.73649C16.0303 6.73649 15.158 10.1685 15.158 11.6554C15.158 16.0688 18.9851 16.5743 20.2108 16.5743C23.5158 16.5743 24.4538 14.5524 24.8384 13.4291H22.4371C22.3433 13.7188 21.6429 14.6588 20.3109 14.6588C18.0784 14.6588 17.8845 13.0093 17.8845 12.2703H24.9885C25.1323 9.71622 23.9504 6.73649 20.2108 6.73649ZM20.1358 8.65203C20.8018 8.65203 21.3396 8.8353 21.6616 9.1723C21.9837 9.51225 22.2213 10.0089 22.287 10.6622H17.8845C17.897 10.4818 17.9408 10.2749 18.0096 10.0473C18.0784 9.81377 18.1847 9.59206 18.3598 9.38514C18.5349 9.18117 18.7787 9.0038 19.0602 8.86486C19.3478 8.72297 19.7043 8.65203 20.1358 8.65203ZM4.25183 10.7568H7.77881C8.4792 10.7568 10.1301 10.8602 10.1301 12.7669C10.1301 14.6144 8.05084 14.6115 7.72878 14.6115H4.25183V10.7568Z" fill="currentColor"/>
</svg>
