<svg width="20" height="20" viewBox="0 0 20 20" fill="none" xmlns="http://www.w3.org/2000/svg">
<path fill-rule="evenodd" clip-rule="evenodd" d="M10 3C6.13997 3 3 6.13997 3 10C3 13.86 6.13997 17 10 17C13.86 17 17 13.86 17 10C17 6.13997 13.86 3 10 3ZM10 4.16667C11.4788 4.16667 12.8187 4.72266 13.8464 5.625C13.737 5.77767 13.5889 5.96224 13.3542 6.1901C12.8551 6.67318 12.0576 7.25423 10.8385 7.70312C10.0137 6.17871 9.20475 5.03255 8.66927 4.3125C9.09538 4.21452 9.54199 4.16667 10 4.16667ZM7.52083 4.71354C7.99935 5.34017 8.85156 6.50228 9.70833 8.04948C7.33626 8.67839 5.16016 8.75814 4.29427 8.76042C4.68164 6.95801 5.89388 5.47461 7.52083 4.71354ZM14.6484 6.48177C15.3594 7.42285 15.8014 8.58724 15.8333 9.85417C15.3138 9.73796 14.5482 9.62402 13.5547 9.61719C13.0374 9.61491 12.4518 9.65137 11.8229 9.72656C11.6771 9.39388 11.5199 9.07259 11.3672 8.76042C12.6751 8.25911 13.5661 7.59831 14.1562 7.02865C14.3568 6.83268 14.514 6.65267 14.6484 6.48177ZM10.237 9.10677C10.3714 9.37793 10.5081 9.65592 10.638 9.94531C8.14518 10.6357 6.35417 12.7503 5.58854 13.8099C4.70671 12.7891 4.16667 11.4583 4.16667 10C4.16667 9.97494 4.16667 9.95215 4.16667 9.92708C4.95508 9.9362 7.46159 9.88151 10.237 9.10677ZM13.5547 10.7656C14.596 10.7656 15.3161 10.9115 15.7422 11.0208C15.471 12.5749 14.5938 13.9079 13.3542 14.776C13.1217 13.3815 12.7389 12.0553 12.2786 10.8385C12.7389 10.793 13.1742 10.7656 13.5547 10.7656ZM11.0938 11.0391C11.6178 12.3698 12.0576 13.8304 12.2786 15.3776C11.5814 15.6715 10.8066 15.8333 10 15.8333C8.66243 15.8333 7.42741 15.3844 6.44531 14.6302C7.0446 13.8099 8.80599 11.627 11.0938 11.0391Z" fill="currentColor"/>
</svg>
