<svg width="20" height="20" viewBox="0 0 20 20" fill="none" xmlns="http://www.w3.org/2000/svg">
<path fill-rule="evenodd" clip-rule="evenodd" d="M4.68164 3C3.75319 3 3 3.75194 3 4.6804C3 5.60885 3.75258 6.3782 4.6804 6.3782C5.60822 6.3782 6.36204 5.60885 6.36204 4.6804C6.36204 3.75258 5.6101 3 4.68164 3ZM12.886 7.45455C11.4739 7.45455 10.666 8.19302 10.2784 8.92738H10.2374V7.65217H7.45455V17H10.3542V12.3727C10.3542 11.1534 10.4463 9.97514 11.9551 9.97514C13.4423 9.97514 13.464 11.3654 13.464 12.4498V17H16.3599H16.3636V11.8656C16.3636 9.35323 15.8235 7.45455 12.886 7.45455ZM3.23118 7.65217V17H6.13335V7.65217H3.23118Z" fill="currentColor"/>
</svg>
