<svg width="94" height="31" viewBox="0 0 94 31" fill="none" xmlns="http://www.w3.org/2000/svg">
<path d="M44.14 13.34V8.878H53.294V6.555H41.403V23H53.524V20.677H44.14V15.686H52.167V13.34H44.14Z" fill="#1E1E1E"/>
<path d="M68.7045 10.925C66.8875 10.925 65.7375 11.822 64.8635 12.949H64.8175C64.3345 11.684 63.3455 10.925 61.6895 10.925C59.9185 10.925 58.8145 11.845 58.1935 12.765H58.1475V11.247H55.7325V23H58.1475V15.847C58.1475 14.099 59.1825 12.972 60.7925 12.972C62.4715 12.972 62.7935 13.984 62.7935 15.571V23H65.2315V15.847C65.2315 14.099 66.2435 12.972 67.8765 12.972C69.5325 12.972 69.8545 13.984 69.8545 15.571V23H72.2925V14.881C72.2925 12.351 71.0735 10.925 68.7045 10.925Z" fill="#1E1E1E"/>
<path d="M80.3513 10.971C78.8103 10.971 77.8443 11.983 77.2233 13.455H77.1773V11.247H74.7623V23H77.1773V16.997C77.1773 14.49 79.0403 12.926 81.3633 13.317H81.4093V11.04C81.0643 10.994 80.7653 10.971 80.3513 10.971Z" fill="#1E1E1E"/>
<path d="M93.631 11.247H91.055L88.042 20.24H87.996L84.707 11.247H82.108L86.363 21.804C86.8 22.908 86.478 23.828 86.041 24.357C85.512 25.001 84.753 25.07 83.741 24.932H83.534V26.772C83.994 26.887 84.569 27.002 85.259 27.002C87.513 27.002 88.272 25.553 88.939 23.736L93.631 11.247Z" fill="#1E1E1E"/>
<path d="M15.5 26.6162C9.39394 26.6162 4.22728 21.6061 4.22728 15.3434C4.22728 9.23738 9.23738 4.07071 15.5 4.07071C21.6061 4.07071 26.7727 9.08081 26.7727 15.3434C26.6162 21.6061 21.6061 26.6162 15.5 26.6162ZM15.5 6.26263C10.4899 6.26263 6.26263 10.4899 6.26263 15.5C6.26263 20.5101 10.3333 24.7374 15.5 24.7374C20.5101 24.7374 24.7374 20.6667 24.7374 15.5C24.5808 10.4899 20.5101 6.26263 15.5 6.26263Z" fill="#7A28FF"/>
<path d="M31 15.5H28.9646C28.9646 8.14141 22.8586 2.03535 15.5 2.03535C8.14141 2.03535 2.03535 8.14141 2.03535 15.5H0C0 6.88889 6.88889 0 15.5 0C24.1111 0 31 6.88889 31 15.5Z" fill="#7A28FF"/>
<path d="M15.5 31C6.88889 31 0 23.9545 0 15.5H2.03535C2.03535 22.8586 8.14141 28.9646 15.5 28.9646V31Z" fill="#7A28FF"/>
<path d="M22.2323 15.6566H20.197C20.197 12.995 18.0051 10.9596 15.5 10.9596C12.9949 10.9596 10.803 13.1515 10.803 15.6566H8.61111C8.61111 11.899 11.5859 8.92425 15.3434 8.92425C19.101 8.92425 22.2323 11.899 22.2323 15.6566Z" fill="#7A28FF"/>
</svg>
