<svg width="43" height="40" viewBox="0 0 43 40" fill="none" xmlns="http://www.w3.org/2000/svg">
<path fill-rule="evenodd" clip-rule="evenodd" d="M0 8V33H12.8176C14.0053 33 22.1843 32.773 22.1843 25.7365C22.1843 21.3393 18.9743 19.8454 17.3441 19.402C18.543 18.8689 20.9295 17.602 20.9295 14.2078C20.9295 12.318 20.6438 8 12.4591 8H0ZM29.2206 10.3226V12.603H39.1251V10.3226H29.2206ZM5.82619 12.2652H11.2938C11.8092 12.2652 15.2826 12.0065 15.2826 15.1368C15.2826 17.8131 12.7728 18.0929 11.742 18.0929H5.82619V12.2652ZM34.4193 14.6723C26.9293 14.6723 25.3663 20.8009 25.3663 23.4561C25.3663 31.3372 32.2233 32.2399 34.4193 32.2399C40.3408 32.2399 42.0214 28.6292 42.7105 26.6233H38.4081C38.24 27.1406 36.9851 28.8193 34.5986 28.8193C30.5987 28.8193 30.2514 25.8737 30.2514 24.5541H42.9794C43.2371 19.9932 41.1195 14.6723 34.4193 14.6723ZM34.2849 18.0929C35.4781 18.0929 36.4417 18.4202 37.0187 19.022C37.5957 19.629 38.0215 20.5158 38.1392 21.6824H30.2514C30.2738 21.3604 30.3522 20.9909 30.4755 20.5845C30.5987 20.1674 30.7892 19.7715 31.1029 19.402C31.4166 19.0378 31.8536 18.7211 32.3578 18.473C32.8732 18.2196 33.5118 18.0929 34.2849 18.0929ZM5.82619 21.8514H12.1454C13.4002 21.8514 16.3582 22.0361 16.3582 25.4409C16.3582 28.7401 12.6328 28.7348 12.0557 28.7348H5.82619V21.8514Z" fill="currentColor"/>
</svg>
