<svg width="40" height="40" viewBox="0 0 40 40" fill="none" xmlns="http://www.w3.org/2000/svg">
<path fill-rule="evenodd" clip-rule="evenodd" d="M20.5 8C13.6071 8 8 13.6071 8 20.5C8 27.3929 13.6071 33 20.5 33C27.3929 33 33 27.3929 33 20.5C33 13.6071 27.3929 8 20.5 8ZM20.5 10.0833C23.1408 10.0833 25.5334 11.0762 27.3685 12.6875C27.1732 12.9601 26.9087 13.2897 26.4896 13.6966C25.5985 14.5592 24.1743 15.5968 21.9974 16.3984C20.5244 13.6763 19.0799 11.6296 18.1237 10.3438C18.8846 10.1688 19.6821 10.0833 20.5 10.0833ZM16.0729 11.0599C16.9274 12.1789 18.4492 14.2541 19.9792 17.0169C15.7433 18.14 11.8574 18.2824 10.3112 18.2865C11.0029 15.0679 13.1676 12.4189 16.0729 11.0599ZM28.8008 14.2174C30.0703 15.8979 30.8597 17.9772 30.9167 20.2396C29.9889 20.0321 28.6217 19.8286 26.8477 19.8164C25.924 19.8123 24.8783 19.8774 23.7552 20.0117C23.4948 19.4176 23.214 18.8439 22.9414 18.2865C25.277 17.3913 26.868 16.2113 27.9219 15.194C28.2799 14.8441 28.5607 14.5226 28.8008 14.2174ZM20.9232 18.9049C21.1632 19.3892 21.4074 19.8856 21.6393 20.4023C17.1878 21.6353 13.9896 25.4113 12.6224 27.3034C11.0477 25.4805 10.0833 23.1042 10.0833 20.5C10.0833 20.4552 10.0833 20.4146 10.0833 20.3698C11.4912 20.3861 15.9671 20.2884 20.9232 18.9049ZM26.8477 21.8672C28.7072 21.8672 29.993 22.1276 30.7539 22.3229C30.2697 25.098 28.7031 27.4784 26.4896 29.0286C26.0745 26.5384 25.391 24.1702 24.569 21.9974C25.391 21.916 26.1681 21.8672 26.8477 21.8672ZM22.4531 22.3555C23.389 24.7318 24.1743 27.34 24.569 30.1029C23.3239 30.6278 21.9404 30.9167 20.5 30.9167C18.1115 30.9167 15.9061 30.1151 14.1523 28.7682C15.2225 27.3034 18.3678 23.4053 22.4531 22.3555Z" fill="currentColor"/>
</svg>
