<svg width="40" height="40" viewBox="0 0 40 40" fill="none" xmlns="http://www.w3.org/2000/svg">
<path fill-rule="evenodd" clip-rule="evenodd" d="M15.2566 8C11.2602 8 8 11.2602 8 15.2566V25.7434C8 29.7398 11.2602 33 15.2566 33H25.7434C29.7398 33 33 29.7398 33 25.7434V15.2566C33 11.2602 29.7398 8 25.7434 8H15.2566ZM15.2566 9.92308H25.7434C28.6994 9.92308 31.0769 12.2969 31.0769 15.2566V25.7434C31.0769 28.6994 28.7031 31.0769 25.7434 31.0769H15.2566C12.3006 31.0769 9.92308 28.7031 9.92308 25.7434V15.2566C9.92308 12.3006 12.2969 9.92308 15.2566 9.92308ZM27.7115 11.8462C26.9153 11.8462 26.2692 12.4922 26.2692 13.2885C26.2692 14.0847 26.9153 14.7308 27.7115 14.7308C28.5078 14.7308 29.1538 14.0847 29.1538 13.2885C29.1538 12.4922 28.5078 11.8462 27.7115 11.8462ZM20.5 13.7692C16.7928 13.7692 13.7692 16.7928 13.7692 20.5C13.7692 24.2072 16.7928 27.2308 20.5 27.2308C24.2072 27.2308 27.2308 24.2072 27.2308 20.5C27.2308 16.7928 24.2072 13.7692 20.5 13.7692ZM20.5 15.6923C23.1668 15.6923 25.3077 17.8332 25.3077 20.5C25.3077 23.1668 23.1668 25.3077 20.5 25.3077C17.8332 25.3077 15.6923 23.1668 15.6923 20.5C15.6923 17.8332 17.8332 15.6923 20.5 15.6923Z" fill="currentColor"/>
</svg>
