<svg width="40" height="40" viewBox="0 0 40 40" fill="none" xmlns="http://www.w3.org/2000/svg">
<path fill-rule="evenodd" clip-rule="evenodd" d="M11.0029 8C9.34498 8 8 9.34276 8 11.0007C8 12.6587 9.34389 14.0325 11.0007 14.0325C12.6575 14.0325 14.0036 12.6587 14.0036 11.0007C14.0036 9.34389 12.6609 8 11.0029 8ZM25.6536 15.9545C23.132 15.9545 21.6892 17.2732 20.9972 18.5846H20.9239V16.3074H15.9545V33H21.1325V24.7369C21.1325 22.5597 21.2969 20.4556 23.9912 20.4556C26.6469 20.4556 26.6856 22.9382 26.6856 24.8746V33H31.857H31.8636V23.8314C31.8636 19.345 30.899 15.9545 25.6536 15.9545ZM8.41282 16.3074V33H13.5953V16.3074H8.41282Z" fill="currentColor"/>
</svg>
