<svg width="40" height="40" viewBox="0 0 40 40" fill="none" xmlns="http://www.w3.org/2000/svg">
<path fill-rule="evenodd" clip-rule="evenodd" d="M36.1429 8C34.8893 8.72339 32.3741 9.70927 30.8955 9.99363C30.8521 10.0046 30.8168 10.0186 30.775 10.0296C29.4684 8.77651 27.678 8 25.6964 8C21.7027 8 18.4643 11.1482 18.4643 15.0308C18.4643 15.2355 18.4466 15.612 18.4643 15.812C13.0755 15.812 8.97411 13.0684 6.03304 9.5624C5.71321 10.3436 5.57339 11.5779 5.57339 12.7372C5.57339 14.9261 7.33321 17.076 10.0734 18.4087C9.56875 18.5353 9.01268 18.6259 8.43411 18.6259C7.50036 18.6259 6.51196 18.3869 5.60714 17.6619C5.60714 17.6885 5.60714 17.7135 5.60714 17.7416C5.60714 20.8008 8.94679 22.8834 11.9168 23.4631C11.3141 23.8084 10.0991 23.8428 9.50607 23.8428C9.08821 23.8428 7.60964 23.6568 7.21429 23.585C8.04036 26.0926 11.02 27.5019 13.8598 27.5519C11.6388 29.2455 10.0975 29.8736 5.54929 29.8736H4C6.87357 31.6641 10.533 33 14.2005 33C26.1416 33 32.9286 24.1521 32.9286 15.812C32.9286 15.6776 32.9254 15.3964 32.9205 15.1136C32.9205 15.0855 32.9286 15.0589 32.9286 15.0308C32.9286 14.9886 32.9157 14.948 32.9157 14.9058C32.9109 14.6933 32.9061 14.4949 32.9013 14.3918C34.1709 13.5012 35.2718 12.3904 36.1429 11.1248C34.9777 11.6279 33.7273 11.9654 32.4143 12.1185C33.7546 11.3373 35.6591 9.47491 36.1429 8Z" fill="currentColor"/>
</svg>
